# Made using Asset Forge (www.assetforge.io) version 1.3 

mtllib Lamppost.mtl 

g column_5

v -0.04481524 0.618313 -0.06380612
v -0.04481524 0.5374693 -0.06380612
v -0.04481524 0.618313 0.05399388
v -0.04481524 0.4244295 -0.06380612
v -0.04481524 0.4244295 0.05399388
v -0.04481524 1.7 0.05399388
v -0.04481524 1.7 -0.06380612
v -0.04481524 0.5374693 0.05399388
v -0.1564153 0.4244295 0.05399388
v -0.1564153 0.4244295 -0.06380612
v -0.02355063 0.5374693 0.07643992
v -0.17768 0.5374693 0.07643992
v -0.02355063 0.618313 0.07643992
v -0.17768 0.618313 0.07643992
v -0.001230538 0 0.09999996
v -0.2 0 0.09999996
v -0.001230538 0.3637967 0.09999996
v -0.2 0.3637967 0.09999996
v -0.02355063 0.618313 -0.08625215
v -0.17768 0.618313 -0.08625215
v -0.1564153 0.618313 -0.06380612
v -0.1564153 0.618313 0.05399388
v -0.2 0.3637967 -0.1098122
v -0.001230538 0.3637967 -0.1098122
v -0.2 0 -0.1098122
v -0.1564153 0.5374693 0.05399388
v -0.1564153 1.7 0.05399388
v -0.1564153 1.7 -0.06380612
v -0.1564153 0.5374693 -0.06380612
v -0.17768 0.5374693 -0.08625215
v -0.001230538 0 -0.1098122
v -0.02355063 0.5374693 -0.08625215
vn 1.8 0 0
vn 0 1.7 0
vn 0 -1.7 0
vn 0 0 1.9
vn 0 0.9548647 -1.571967
vn -1.489232 0.9548647 0
vn -1.8 0 0
vn 0 0 -1.9
vn 1.489232 0.9548647 0
vn 0 0.9548647 1.571967
vt 0.06380614 0.618313
vt 0.06380614 0.5374693
vt -0.05399388 0.618313
vt 0.06380614 0.4244295
vt -0.05399388 0.4244295
vt -0.05399388 1.7
vt 0.06380614 1.7
vt -0.04481526 0.5374693
vt -0.04481526 0.618313
vt -0.04481526 0.4244295
vt 0.04481526 -0.05399388
vt 0.04481526 0.06380614
vt 0.1564153 -0.05399388
vt 0.1564153 0.06380614
vt -0.02355061 0.5374693
vt -0.1776799 0.5374693
vt -0.02355061 0.618313
vt -0.1776799 0.618313
vt -0.001230549 0
vt -0.2 0
vt -0.001230549 0.3637967
vt -0.2 0.3637967
vt 0.02355061 0.0764399
vt 0.04481526 -0.06380614
vt 0.02355061 -0.08625217
vt 0.1776799 -0.08625217
vt 0.1564153 -0.06380614
vt 0.1564153 0.05399388
vt 0.04481526 0.05399388
vt 0.1776799 0.0764399
vt 0.2 0.3637967
vt 0.001230549 0.3637967
vt 0.1564153 0.4244295
vt 0.04481526 0.4244295
vt -0.1098122 0.3637967
vt -0.06380614 0.4244295
vt 0.09999996 0.3637967
vt 0.05399388 0.4244295
vt -0.1098122 0
vt 0.09999996 0
vt -0.1564153 0.4244295
vt -0.1564153 0.5374693
vt -0.1564153 0.618313
vt -0.04481526 1.7
vt -0.1564153 1.7
vt 0.1564153 0.618313
vt 0.04481526 0.618313
vt 0.1564153 1.7
vt 0.04481526 1.7
vt 0.04481526 0.5374693
vt 0.1564153 0.5374693
vt -0.08625217 0.5374693
vt -0.08625217 0.618313
vt 0.0764399 0.5374693
vt 0.0764399 0.618313
vt 0.2 0
vt 0.001230549 0
vt -0.06380614 0.5374693
vt -0.06380614 0.618313
vt 0.05399388 0.618313
vt -0.06380614 1.7
vt 0.05399388 1.7
vt 0.1098122 0.3637967
vt 0.1098122 0
vt -0.09999996 0.3637967
vt -0.09999996 0
vt 0.1776799 0.5374693
vt 0.02355061 0.5374693
vt 0.1776799 0.618313
vt 0.02355061 0.618313
vt 0.08625217 0.618313
vt 0.08625217 0.5374693
vt -0.0764399 0.618313
vt -0.0764399 0.5374693
vt 0.001230549 -0.09999996
vt 0.001230549 0.1098122
vt 0.2 -0.09999996
vt 0.2 0.1098122
vt 0.02355061 0.08625217
vt 0.02355061 -0.0764399
vt 0.1776799 -0.0764399
vt 0.1776799 0.08625217

usemtl customMaterial1 (Instance)
usemap customMaterial1 (Instance)
f 3/3/1 2/2/1 1/1/1
f 2/2/1 3/3/1 4/4/1
f 4/4/1 3/3/1 5/5/1
f 1/1/1 6/6/1 3/3/1
f 6/6/1 1/1/1 7/7/1
f 5/10/2 3/9/2 8/8/2
f 9/13/3 4/12/3 5/11/3
f 4/12/3 9/13/3 10/14/3
f 13/17/4 12/16/4 11/15/4
f 12/16/4 13/17/4 14/18/4
f 17/21/4 16/20/4 15/19/4
f 16/20/4 17/21/4 18/22/4
f 19/25/2 1/24/2 13/23/2
f 1/24/2 19/25/2 20/26/2
f 1/24/2 20/26/2 21/27/2
f 21/27/2 20/26/2 22/28/2
f 3/29/2 13/23/2 1/24/2
f 13/23/2 3/29/2 14/30/2
f 14/30/2 3/29/2 22/28/2
f 14/30/2 22/28/2 20/26/2
f 10/33/5 24/32/5 23/31/5
f 24/32/5 10/33/5 4/34/5
f 18/37/6 10/36/6 23/35/6
f 10/36/6 18/37/6 9/38/6
f 16/40/7 23/35/7 25/39/7
f 23/35/7 16/40/7 18/37/7
f 8/8/4 9/41/4 5/10/4
f 9/41/4 8/8/4 26/42/4
f 26/42/4 8/8/4 3/9/4
f 26/42/4 3/9/4 22/43/4
f 6/44/4 22/43/4 3/9/4
f 22/43/4 6/44/4 27/45/4
f 28/48/8 1/47/8 21/46/8
f 1/47/8 28/48/8 7/49/8
f 2/50/8 21/46/8 1/47/8
f 2/50/8 29/51/8 21/46/8
f 4/34/8 29/51/8 2/50/8
f 29/51/8 4/34/8 10/33/8
f 12/54/7 20/53/7 30/52/7
f 20/53/7 12/54/7 14/55/7
f 23/31/8 31/57/8 25/56/8
f 31/57/8 23/31/8 24/32/8
f 9/38/7 29/58/7 10/36/7
f 29/58/7 9/38/7 21/59/7
f 21/59/7 9/38/7 22/60/7
f 22/60/7 28/61/7 21/59/7
f 28/61/7 22/60/7 27/62/7
f 22/43/2 9/41/2 26/42/2
f 17/65/1 31/64/1 24/63/1
f 31/64/1 17/65/1 15/66/1
f 20/69/8 32/68/8 30/67/8
f 32/68/8 20/69/8 19/70/8
f 4/4/9 17/65/9 24/63/9
f 17/65/9 4/4/9 5/5/9
f 13/73/1 32/72/1 19/71/1
f 32/72/1 13/73/1 11/74/1
f 5/10/10 18/22/10 17/21/10
f 18/22/10 5/10/10 9/41/10
f 28/27/2 6/29/2 7/24/2
f 6/29/2 28/27/2 27/28/2
f 16/77/3 31/76/3 15/75/3
f 31/76/3 16/77/3 25/78/3
f 11/80/3 8/11/3 32/79/3
f 8/11/3 11/80/3 12/81/3
f 8/11/3 12/81/3 26/13/3
f 26/13/3 12/81/3 29/14/3
f 2/12/3 32/79/3 8/11/3
f 32/79/3 2/12/3 30/82/3
f 30/82/3 2/12/3 29/14/3
f 30/82/3 29/14/3 12/81/3
g roof_point_divided_11

v 7.450581E-09 2 -0.09999996
v -7.450581E-09 2 0.1
v -0.2 2 -0.09999998
v -0.2 2 0.1
v -0.175 1.8 0.07500003
v -0.02499999 1.8 0.07500004
v -0.175 1.8 -0.07499998
v -0.02499998 1.8 -0.07499997
v -0.09999996 1.6 2.98E-08
vn -3.496911E-08 0.4 -3.057097E-15
vn -8.481256E-09 -0.09701426 0.1940285
vn -0.1940285 -0.09701427 -1.696251E-08
vn 0.1940285 -0.09701424 1.696251E-08
vn 2.544377E-08 -0.09701426 -0.1940285
vn -0.16 -0.24 -1.398764E-08
vn 3.496911E-08 -0.24 -0.16
vn 0.16 -0.24 1.398765E-08
vn 6.993822E-09 -0.24 0.16
vt -8.742278E-09 -0.09999996
vt 8.742278E-09 0.1
vt 0.2 -0.09999998
vt 0.2 0.1
vt -0.2 2
vt -8.742278E-09 2
vt -0.175 1.8
vt -0.02499999 1.8
vt 0.1 2
vt 0.07500003 1.8
vt -0.09999998 2
vt -0.07499998 1.8
vt -0.1 2
vt 0.09999996 2
vt -0.07500004 1.8
vt 0.07499997 1.8
vt 0.2 2
vt 0.02499998 1.8
vt 0.175 1.8
vt 2.98E-08 1.6
vt 0.09999996 1.6
vt -2.98E-08 1.6
vt -0.09999996 1.6

usemtl hilt (Instance)
usemap hilt (Instance)
f 35/85/11 34/84/11 33/83/11
f 34/84/11 35/85/11 36/86/11
f 37/89/12 34/88/12 36/87/12
f 34/88/12 37/89/12 38/90/12
f 35/93/13 37/92/13 36/91/13
f 37/92/13 35/93/13 39/94/13
f 38/97/14 33/96/14 34/95/14
f 33/96/14 38/97/14 40/98/14
f 40/100/15 35/99/15 33/88/15
f 35/99/15 40/100/15 39/101/15
f 39/94/16 41/102/16 37/92/16
f 41/103/17 39/101/17 40/100/17
f 40/98/18 38/97/18 41/104/18
f 41/105/19 38/90/19 37/89/19
g roof_flat_12

v 0 2 0.1
v 0 2 -0.09999999
v -0.2 2 0.1
v -0.2 2 -0.09999999
v 0 2.03 0.1
v -0.02422189 2.03 -0.0757781
v 0 2.03 -0.09999999
v -0.2 2.03 -0.09999999
v -0.1757781 2.03 -0.0757781
v -0.1757781 2.03 0.07577812
v -0.02422189 2.03 0.07577812
v -0.2 2.03 0.1
v -0.1757781 2.015 -0.0757781
v -0.02422189 2.015 0.07577812
v -0.02422189 2.015 -0.0757781
v -0.1757781 2.015 0.07577812
vn 0 -0.2 0
vn 0 0.2 0
vn 0.2 0 0
vn -0.2 0 0
vn 0 0 0.2
vn 0 0 -0.2
vt 0 -0.1
vt 0 0.09999999
vt 0.2 -0.1
vt 0.2 0.09999999
vt 0.2 0.1
vt 0 -0.09999999
vt 0 0.1
vt 0.2 -0.09999999
vt 0.02422189 -0.0757781
vt 0.1757781 -0.0757781
vt 0.1757781 0.07577811
vt 0.02422189 0.07577811
vt 0.02422189 0.0757781
vt 0.1757781 0.0757781
vt 0.1757781 -0.07577811
vt 0.02422189 -0.07577811
vt 0.09999999 2.03
vt 0.09999999 2
vt -0.1 2.03
vt -0.1 2
vt 0.1 2.03
vt -0.09999999 2
vt -0.09999999 2.03
vt 0.1 2
vt 0 2
vt -0.2 2
vt 0 2.03
vt -0.2 2.03
vt 0.2 2
vt 0.2 2.03
vt -0.02422189 2.015
vt -0.1757781 2.015
vt -0.02422189 2.03
vt -0.1757781 2.03
vt 0.02422189 2.03
vt 0.1757781 2.015
vt 0.02422189 2.015
vt 0.1757781 2.03
vt 0.0757781 2.03
vt 0.0757781 2.015
vt -0.07577811 2.03
vt -0.07577811 2.015
vt 0.07577811 2.03
vt -0.0757781 2.015
vt -0.0757781 2.03
vt 0.07577811 2.015

usemtl customMaterial1 (Instance)
usemap customMaterial1 (Instance)
f 44/108/20 43/107/20 42/106/20
f 43/107/20 44/108/20 45/109/20
f 42/112/21 43/111/21 44/110/21
f 45/113/21 44/110/21 43/111/21
f 48/111/21 47/114/21 46/112/21
f 47/114/21 48/111/21 49/113/21
f 47/114/21 49/113/21 50/115/21
f 50/115/21 49/113/21 51/116/21
f 52/117/21 46/112/21 47/114/21
f 46/112/21 52/117/21 53/110/21
f 53/110/21 52/117/21 51/116/21
f 53/110/21 51/116/21 49/113/21
f 46/106/20 47/118/20 48/107/20
f 49/109/20 48/107/20 47/118/20
f 50/119/20 49/109/20 47/118/20
f 51/120/20 49/109/20 50/119/20
f 47/118/20 46/106/20 52/121/20
f 53/108/20 52/121/20 46/106/20
f 51/120/20 52/121/20 53/108/20
f 49/109/20 51/120/20 53/108/20
f 46/124/22 43/123/22 48/122/22
f 43/123/22 46/124/22 42/125/22
f 48/128/23 43/127/23 46/126/23
f 42/129/23 46/126/23 43/127/23
f 46/132/24 44/131/24 42/130/24
f 44/131/24 46/132/24 53/133/24
f 42/130/25 44/134/25 46/132/25
f 53/135/25 46/132/25 44/134/25
f 44/129/23 49/128/23 45/127/23
f 49/128/23 44/129/23 53/126/23
f 45/123/22 49/122/22 44/125/22
f 53/124/22 44/125/22 49/122/22
f 49/135/25 43/130/25 45/134/25
f 43/130/25 49/135/25 48/132/25
f 45/131/24 43/130/24 49/133/24
f 48/132/24 49/133/24 43/130/24
f 56/118/20 55/121/20 54/119/20
f 57/120/20 54/119/20 55/121/20
f 47/138/24 54/137/24 56/136/24
f 54/137/24 47/138/24 50/139/24
f 56/142/25 54/141/25 47/140/25
f 50/143/25 47/140/25 54/141/25
f 51/146/22 54/145/22 50/144/22
f 54/145/22 51/146/22 57/147/22
f 50/150/23 54/149/23 51/148/23
f 57/151/23 51/148/23 54/149/23
f 51/143/25 55/142/25 57/141/25
f 55/142/25 51/143/25 52/140/25
f 57/137/24 55/136/24 51/139/24
f 52/138/24 51/139/24 55/136/24
f 55/151/23 47/150/23 56/149/23
f 47/150/23 55/151/23 52/148/23
f 56/145/22 47/144/22 55/147/22
f 52/146/22 55/147/22 47/144/22

usemtl customMaterial1 (Instance)
usemap customMaterial1 (Instance)
f 54/115/21 55/117/21 56/114/21
f 55/117/21 54/115/21 57/116/21
